<svg xmlns="http://www.w3.org/2000/svg" viewBox="0 0 32 32" id="chat">
  <path fill="#d6ebf7" d="M16,2H4c-1.654,0-3,1.346-3,3V13c0,1.654,1.346,3,3,3h2v4c0,.418,.261,.792,.653,.938,.113,.042,.231,.062,.347,.062,.286,0,.565-.123,.759-.349l3.986-4.651h4.254c1.654,0,3-1.346,3-3V5c0-1.654-1.346-3-3-3Z"></path>
  <path fill="#ebf6fd" d="M28,11h-12c-1.654,0-3,1.346-3,3v8c0,1.654,1.346,3,3,3h4.254l3.986,4.651c.194,.226,.473,.349,.759,.349,.116,0,.234-.02,.347-.062,.392-.146,.653-.52,.653-.938v-4h2c1.654,0,3-1.346,3-3V14c0-1.654-1.346-3-3-3Z"></path>
  <path fill="#565656" d="M19 18c0 .552-.448 1-1 1s-1-.448-1-1 .448-1 1-1 1 .448 1 1zm3-1c-.552 0-1 .448-1 1s.448 1 1 1 1-.448 1-1-.448-1-1-1zm4 0c-.552 0-1 .448-1 1s.448 1 1 1 1-.448 1-1-.448-1-1-1zM7 9c0 .552-.448 1-1 1s-1-.448-1-1 .448-1 1-1 1 .448 1 1zm3-1c-.552 0-1 .448-1 1s.448 1 1 1 1-.448 1-1-.448-1-1-1zm4 0c-.552 0-1 .448-1 1s.448 1 1 1 1-.448 1-1-.448-1-1-1z"></path>
</svg>
